<?xml version="1.0" standalone="no"?>
<!DOCTYPE svg PUBLIC "-//W3C//DTD SVG 20010904//EN"
 "http://www.w3.org/TR/2001/REC-SVG-20010904/DTD/svg10.dtd">
<svg version="1.0" xmlns="http://www.w3.org/2000/svg"
 width="4096.000000pt" height="4096.000000pt" viewBox="0 0 4096.000000 4096.000000"
 preserveAspectRatio="xMidYMid meet">

<g transform="translate(0.000000,4096.000000) scale(0.100000,-0.100000)"
fill="#000000" stroke="none">
<path d="M10546 34724 c-439 -79 -809 -405 -949 -835 -59 -179 -57 -123 -57
-1806 l0 -1543 10945 0 10945 0 0 1549 c0 1699 2 1626 -60 1813 -62 185 -156
336 -299 479 -186 186 -403 300 -658 344 -127 22 -19745 21 -19867 -1z m12034
-1585 c142 -33 283 -148 345 -282 93 -202 54 -421 -102 -576 -38 -36 -91 -78
-119 -93 -108 -58 -110 -58 -814 -58 -595 0 -651 1 -711 18 -328 91 -476 482
-291 768 68 105 179 186 299 219 61 17 1321 21 1393 4z m3420 0 c141 -32 282
-147 345 -280 94 -200 55 -423 -102 -578 -38 -36 -91 -78 -119 -93 -108 -58
-110 -58 -814 -58 -595 0 -651 1 -711 18 -328 91 -476 482 -291 768 68 105
179 186 299 219 61 17 1321 21 1393 4z m3435 -4 c190 -50 345 -225 375 -422
25 -158 -29 -315 -147 -432 -76 -74 -141 -113 -228 -136 -85 -22 -1321 -22
-1404 0 -126 33 -233 111 -303 219 -107 166 -107 386 0 552 68 105 179 186
299 219 37 10 192 13 698 14 555 1 660 -1 710 -14z"/>
<path d="M7270 32315 c-506 -85 -903 -473 -1007 -982 -17 -84 -18 -480 -18
-8953 0 -8473 1 -8869 18 -8953 104 -511 503 -900 1007 -982 85 -13 1463 -15
13212 -15 9280 0 13139 3 13194 11 254 35 509 163 694 349 188 189 304 420
345 690 22 144 22 17656 0 17800 -21 136 -49 230 -105 347 -176 369 -513 623
-913 688 -74 12 -206 15 -664 15 l-573 0 -3 -7882 c-2 -7531 -3 -7888 -20
-7988 -44 -254 -103 -443 -207 -655 -138 -283 -323 -524 -555 -723 -334 -286
-746 -471 -1173 -526 -113 -15 -1023 -16 -10016 -16 -10679 0 -9963 -3 -10207
50 -655 142 -1231 591 -1528 1193 -106 214 -175 430 -218 687 -17 100 -18 503
-20 7983 l-3 7877 -583 -1 c-420 -1 -603 -5 -657 -14z"/>
<path d="M9540 23091 c0 -5644 2 -6429 15 -6504 43 -245 159 -475 328 -649
172 -177 374 -289 642 -355 66 -17 617 -18 9895 -21 7020 -2 9853 0 9922 8
318 36 617 199 812 442 118 147 190 289 244 478 l27 95 3 6463 2 6462 -10945
0 -10945 0 0 -6419z m3103 4004 c85 -22 154 -61 219 -123 118 -112 161 -212
161 -372 0 -83 -5 -118 -22 -165 -59 -162 -194 -287 -356 -330 -82 -21 -1321
-22 -1400 -1 -180 47 -323 190 -370 367 -18 68 -19 189 -1 254 48 180 188 321
369 370 79 21 1318 21 1400 0z m17069 4 c170 -35 326 -179 378 -346 27 -88 27
-218 0 -305 -51 -167 -203 -309 -370 -347 -31 -7 -2436 -11 -7555 -11 -6478 0
-7517 2 -7564 15 -170 45 -310 178 -361 343 -27 87 -27 217 0 305 51 163 198
302 365 343 68 17 15026 20 15107 3z m-12827 -4398 c318 -57 608 -173 875
-352 536 -359 872 -893 965 -1534 23 -157 23 -466 1 -620 -61 -413 -238 -808
-504 -1125 -332 -397 -808 -666 -1332 -756 -131 -22 -479 -30 -621 -14 -875
96 -1599 678 -1881 1510 -128 379 -142 841 -37 1247 98 381 290 721 568 1007
188 192 374 328 606 444 245 122 400 167 740 216 17 2 136 3 265 1 186 -2 260
-7 355 -24z m4800 0 c240 -43 441 -111 660 -224 435 -225 765 -561 975 -992
107 -219 169 -418 206 -665 24 -157 24 -472 1 -630 -58 -380 -200 -720 -431
-1030 -90 -122 -304 -336 -426 -426 -316 -235 -675 -380 -1060 -429 -165 -21
-510 -16 -660 10 -622 107 -1159 450 -1496 958 -234 351 -353 719 -371 1142
-32 791 372 1557 1045 1982 265 167 556 274 862 317 158 23 536 15 695 -13z
m-8484 -75 c99 -21 184 -69 259 -145 127 -129 178 -308 135 -475 -37 -143 -14
-116 -784 -888 l-715 -718 710 -712 c769 -772 755 -756 789 -899 41 -176 -10
-355 -140 -484 -63 -63 -156 -116 -235 -134 -68 -16 -199 -13 -261 5 -128 38
-106 18 -1072 982 -505 505 -931 938 -948 964 -51 79 -71 144 -77 249 -3 72 0
110 13 155 42 146 9 110 999 1100 1010 1010 960 965 1116 998 84 19 130 19
211 2z m12439 -13 c268 -66 479 -181 660 -363 254 -253 390 -580 390 -935 0
-268 -71 -501 -221 -725 -201 -300 -529 -514 -883 -575 -69 -12 -173 -15 -472
-15 l-384 0 0 -627 c0 -392 -4 -652 -11 -693 -34 -209 -182 -314 -422 -297
-151 10 -242 56 -300 148 -60 98 -57 -9 -57 1949 0 1581 2 1803 15 1855 43
165 154 264 328 294 29 5 327 8 662 7 578 -3 614 -4 695 -23z m2335 12 c163
-34 107 15 1108 -984 504 -503 924 -930 944 -960 79 -118 106 -289 67 -422
-41 -141 -13 -110 -993 -1090 -984 -984 -950 -952 -1095 -994 -81 -24 -229
-17 -309 14 -235 91 -374 335 -325 570 34 165 -3 122 784 911 393 393 714 720
714 725 0 5 -321 331 -713 725 -690 692 -714 717 -745 786 -44 97 -59 205 -43
301 28 163 135 306 281 376 117 56 204 67 325 42z"/>
<path d="M16350 21934 c-537 -66 -985 -432 -1168 -955 -61 -174 -77 -274 -77
-484 0 -142 5 -212 18 -278 114 -565 541 -994 1107 -1114 120 -25 429 -25 553
0 566 115 998 544 1123 1118 27 121 27 448 0 569 -58 265 -189 510 -376 704
-118 122 -232 208 -370 280 -222 115 -374 155 -615 161 -88 2 -176 1 -195 -1z"/>
<path d="M21121 21930 c-591 -83 -1057 -531 -1193 -1148 -29 -131 -31 -422 -5
-556 89 -443 360 -801 755 -1000 188 -94 353 -135 577 -143 260 -9 455 31 680
141 387 189 654 522 760 946 33 129 45 395 26 531 -85 591 -527 1070 -1111
1206 -118 27 -373 39 -489 23z"/>
<path d="M24730 21326 l0 -526 368 0 c286 0 379 3 421 15 181 48 328 201 366
382 60 281 -88 543 -355 629 -48 15 -105 18 -427 22 l-373 4 0 -526z"/>
<path d="M18414 11383 c16 -53 39 -171 52 -263 34 -255 2 -531 -81 -708 -156
-330 -631 -646 -1425 -947 -953 -361 -2284 -673 -4181 -980 -371 -60 -516 -92
-794 -175 -1058 -318 -2003 -990 -2652 -1885 -44 -60 -88 -122 -97 -137 l-18
-28 11266 0 11267 0 -18 31 c-30 50 -236 324 -315 416 -336 398 -749 759
-1178 1030 -457 288 -992 517 -1502 642 -195 48 -311 69 -868 161 -2909 477
-4720 1083 -5205 1741 -100 136 -147 276 -167 501 -17 177 7 419 58 596 l6 22
-2077 0 c-1973 0 -2076 -1 -2071 -17z"/>
</g>
</svg>
